<?xml version="1.0" encoding="UTF-8"?>
<svg width="501px" height="184px" viewBox="0 0 501 184" version="1.1" xmlns="http://www.w3.org/2000/svg" xmlns:xlink="http://www.w3.org/1999/xlink">
    <!-- Generator: Sketch 52.6 (67491) - http://www.bohemiancoding.com/sketch -->
    <title>white logo</title>
    <desc>Created with Sketch.</desc>
    <g id="white-logo" stroke="none" stroke-width="1" fill="none" fill-rule="evenodd">
        <g id="Propel-Ventures-Logo-Light-Blue-Copy-2" transform="translate(14.000000, 13.000000)" fill="#FFFFFF">
            <path d="M41.377,105.267 C45.194,105.011 48.176,104.093 50.322,102.544 C52.467,100.997 53.545,98.75 53.543,95.826 C53.541,93.073 52.669,91.254 50.918,90.363 C49.17,89.472 46.783,89.144 43.762,89.358 C42.371,89.455 40.98,89.549 39.588,89.639 C38.714,94.944 37.838,100.246 36.964,105.547 C38.434,105.459 39.905,105.365 41.377,105.267 Z M0.943,158.933 C5.912,128.474 10.882,97.948 15.851,67.36 C26.347,67.085 36.844,66.53 47.339,65.736 C58.231,64.906 66.562,66.491 72.327,70.765 C78.091,75.033 80.975,81.427 80.972,90.032 C80.972,95.884 80.078,101.071 78.289,105.581 C76.504,110.093 73.897,113.921 70.477,117.041 C67.057,120.163 62.923,122.629 58.076,124.403 C53.223,126.179 47.698,127.3 41.497,127.717 C38.793,127.899 36.089,128.064 33.385,128.211 C31.716,138.239 30.046,148.943 28.376,158.958 L0.943,158.933 Z" id="Fill-2"></path>
            <path d="M119.199,95.988 C122.853,95.402 125.718,94.262 127.787,92.58 C129.858,90.901 130.891,88.592 130.889,85.666 C130.89,82.998 130.034,81.317 128.323,80.614 C126.615,79.914 124.29,79.807 121.347,80.284 C119.637,80.562 117.927,80.835 116.219,81.106 C115.385,86.356 114.55,91.606 113.715,96.855 C115.544,96.57 117.371,96.281 119.199,95.988 Z M125.282,147.398 C121.427,136.894 117.57,126.371 113.715,115.827 C112.601,116 111.487,116.172 110.374,116.341 C108.626,127.75 106.877,139.154 105.128,150.554 C96.261,151.858 87.394,153.041 78.528,154.082 C83.497,123.04 88.468,91.952 93.436,60.825 C105.006,59.268 116.575,57.488 128.144,55.543 C132.759,54.767 136.931,54.599 140.67,55.051 C144.405,55.506 147.585,56.56 150.211,58.225 C152.835,59.89 154.84,62.158 156.232,65.036 C157.621,67.917 158.323,71.375 158.32,75.417 C158.32,82.991 156.67,89.543 153.37,95.066 C150.07,100.587 145.556,104.777 139.833,107.601 C145.319,119.06 150.807,130.485 156.294,141.882 C145.957,143.832 135.619,145.684 125.282,147.398 Z" id="Fill-3"></path>
            <path d="M226.362,77.636 C226.359,75.315 226.028,73.214 225.349,71.336 C224.671,69.457 223.677,67.907 222.367,66.678 C221.056,65.453 219.426,64.615 217.479,64.168 C215.528,63.722 213.323,63.759 210.858,64.279 C207.757,64.934 204.954,66.231 202.45,68.174 C199.947,70.118 197.817,72.432 196.07,75.115 C194.321,77.8 192.967,80.75 192.012,83.956 C191.058,87.165 190.582,90.315 190.582,93.413 C190.582,95.739 190.919,97.84 191.595,99.724 C192.271,101.608 193.267,103.168 194.578,104.399 C195.892,105.635 197.52,106.482 199.466,106.936 C201.415,107.391 203.658,107.351 206.208,106.817 C209.307,106.165 212.089,104.89 214.554,102.991 C217.02,101.095 219.127,98.794 220.876,96.1 C222.624,93.404 223.978,90.449 224.933,87.234 C225.889,84.021 226.361,80.82 226.362,77.636 Z M203.704,134.701 C196.942,136.117 190.958,136.34 185.753,135.38 C180.546,134.418 176.165,132.431 172.632,129.43 C169.091,126.433 166.405,122.564 164.583,117.84 C162.752,113.12 161.838,107.702 161.837,101.592 C161.833,94.021 163.074,86.688 165.537,79.582 C167.994,72.478 171.461,66.038 175.912,60.245 C180.365,54.455 185.753,49.495 192.074,45.353 C198.396,41.211 205.41,38.329 213.125,36.697 C219.96,35.252 225.987,34.978 231.195,35.886 C236.4,36.797 240.771,38.723 244.313,41.668 C247.85,44.612 250.534,48.43 252.363,53.118 C254.192,57.808 255.11,63.201 255.108,69.313 C255.111,76.886 253.895,84.24 251.471,91.381 C249.045,98.522 245.583,105.026 241.092,110.887 C236.602,116.751 231.194,121.779 224.872,125.967 C218.548,130.152 211.493,133.07 203.704,134.701 Z" id="Fill-4"></path>
            <path d="M295.241,60.856 C299.057,60.091 302.042,58.815 304.185,57.015 C306.331,55.219 307.409,52.86 307.407,49.934 C307.408,47.182 306.532,45.454 304.782,44.766 C303.029,44.075 300.648,44.031 297.627,44.633 C296.234,44.911 294.844,45.19 293.452,45.47 C292.578,50.895 291.703,56.32 290.828,61.745 C292.299,61.447 293.77,61.151 295.241,60.856 Z M282.24,115.769 C273.095,117.651 263.951,119.575 254.806,121.518 C259.776,90.003 264.745,58.494 269.715,26.994 C280.212,24.795 290.707,22.639 301.203,20.563 C312.092,18.409 320.424,19.304 326.19,23.15 C331.958,27.001 334.837,33.256 334.837,41.856 C334.836,47.71 333.942,52.944 332.153,57.564 C330.364,62.186 327.759,66.182 324.34,69.565 C320.922,72.949 316.788,75.769 311.939,78.031 C307.09,80.299 301.562,82.047 295.36,83.289 C292.657,83.831 289.953,84.379 287.249,84.931 C285.579,95.208 283.91,105.487 282.24,115.769 Z" id="Fill-5"></path>
            <path d="M332.391,106.049 C337.362,74.702 342.331,43.383 347.299,12.095 C367.604,8.706 387.908,5.841 408.211,3.788 C406.858,11.571 405.505,19.358 404.153,27.149 C392.517,28.386 380.88,29.884 369.246,31.589 C368.769,34.912 368.293,38.237 367.817,41.562 C375.574,40.414 383.329,39.357 391.086,38.407 C389.813,46.963 388.542,55.521 387.268,64.081 C379.512,65.067 371.755,66.154 364,67.331 C363.483,70.921 362.965,74.512 362.449,78.102 C375.238,76.143 388.027,74.42 400.815,73.005 C399.464,80.802 398.111,88.603 396.759,96.406 C375.303,98.888 353.847,102.216 332.391,106.049" id="Fill-6"></path>
            <path d="M405.165,95.479 C410.135,64.497 415.105,33.565 420.075,2.683 C429.339,1.896 438.601,1.289 447.865,0.891 C444.288,22.986 440.71,45.111 437.131,67.265 C449.069,66.549 461.008,66.162 472.947,66.162 C471.555,74.681 470.163,83.205 468.772,91.734 C447.57,91.893 426.368,93.25 405.165,95.479" id="Fill-7"></path>
        </g>
    </g>
</svg>